<?xml version="1.0" standalone="no"?>
<!DOCTYPE svg PUBLIC "-//W3C//DTD SVG 20010904//EN"
 "http://www.w3.org/TR/2001/REC-SVG-20010904/DTD/svg10.dtd">
<svg version="1.0" xmlns="http://www.w3.org/2000/svg"
 width="500.000000pt" height="500.000000pt" viewBox="0 0 500.000000 500.000000"
 preserveAspectRatio="xMidYMid meet">

<g transform="translate(0.000000,500.000000) scale(0.100000,-0.100000)"
fill="#000000" stroke="none">
<path d="M1952 4677 c-36 -38 -65 -117 -70 -192 -4 -52 -12 -83 -34 -121 -16
-30 -31 -75 -35 -105 -4 -36 -14 -64 -30 -83 -28 -34 -25 -69 10 -101 12 -11
28 -33 36 -48 9 -16 18 -24 24 -18 5 5 15 62 23 127 22 183 19 178 113 193 69
10 85 10 132 -6 63 -21 73 -43 52 -116 -8 -28 -13 -83 -12 -131 4 -120 -5
-132 -102 -128 -80 4 -114 -10 -114 -45 0 -10 -5 -18 -12 -18 -6 0 -15 -4 -20
-9 -5 -5 -3 -6 5 -2 6 4 12 3 12 -2 0 -15 -26 -33 -35 -24 -5 4 -5 2 -2 -5 4
-6 1 -14 -5 -17 -7 -3 6 -5 29 -3 34 2 42 -1 40 -13 -1 -10 7 -16 26 -18 15
-2 27 -8 27 -13 0 -5 9 -9 19 -9 11 0 23 -4 26 -10 3 -5 17 -10 31 -10 23 0
55 -26 53 -44 0 -5 5 -12 12 -17 9 -5 5 -10 -14 -14 -18 -5 -27 -14 -27 -26 0
-33 -29 -92 -62 -126 -31 -32 -35 -33 -112 -34 -85 -1 -81 -4 37 -29 71 -14
101 -40 92 -78 -5 -23 -2 -28 16 -29 29 -2 37 -12 19 -23 -12 -8 -12 -10 -1
-10 9 0 10 -4 3 -12 -5 -7 -10 -41 -10 -75 l0 -63 68 0 68 0 10 -72 c6 -39 9
-75 6 -80 -3 -4 -31 -8 -62 -8 -98 0 -161 -11 -166 -29 -3 -9 -8 -49 -12 -88
l-7 -73 26 0 c14 0 28 -7 31 -16 3 -8 2 -13 -2 -10 -5 3 -13 -8 -19 -25 -9
-22 -8 -29 1 -29 7 0 13 -6 13 -14 0 -9 -7 -12 -16 -8 -9 3 -13 2 -9 -3 4 -4
3 -16 -3 -26 -6 -13 -6 -19 1 -19 5 0 10 -7 10 -15 0 -8 -4 -15 -10 -15 -5 0
-10 -6 -10 -13 0 -7 -16 -19 -36 -26 -20 -7 -32 -16 -26 -20 11 -7 -14 -73
-31 -79 -4 -2 -3 -10 4 -18 9 -11 8 -14 -5 -14 -9 0 -16 -7 -16 -16 0 -9 5
-13 13 -9 6 4 1 -3 -11 -14 -15 -13 -26 -36 -29 -60 -5 -37 -8 -40 -46 -46
-22 -4 -58 -7 -79 -7 -21 1 -36 -3 -33 -9 8 -12 -8 -12 -21 1 -6 6 -15 3 -26
-9 -15 -17 -11 -18 86 -24 55 -4 200 -10 321 -13 155 -5 212 -10 193 -16 -30
-10 -36 -24 -15 -31 34 -11 -213 -16 -400 -8 -220 11 -338 25 -360 43 -10 8
-13 4 -13 -16 0 -19 8 -32 28 -43 19 -11 39 -40 62 -90 l33 -74 -5 -190 c-5
-157 -3 -191 8 -196 11 -4 14 -33 14 -135 0 -83 4 -127 10 -123 6 3 10 22 10
41 0 20 8 42 19 53 11 11 27 31 36 45 10 14 21 24 25 21 5 -3 10 1 13 7 3 9
13 5 31 -12 l26 -26 6 -264 c7 -314 6 -310 92 -311 50 0 54 -2 32 -11 -14 -7
-80 -12 -147 -12 -68 -1 -123 -4 -123 -7 0 -9 67 -19 131 -19 38 0 61 -5 69
-15 11 -13 2 -15 -68 -15 -45 0 -84 -5 -87 -10 -4 -6 24 -10 77 -11 46 0 92
-4 103 -9 18 -7 18 -8 -7 -15 -15 -4 -70 -5 -122 -3 -127 4 -109 -14 27 -27
56 -5 102 -14 102 -20 0 -6 -41 -12 -92 -15 -50 -3 -94 -8 -97 -11 -4 -3 30
-9 75 -12 45 -4 84 -9 87 -12 13 -13 -14 -17 -108 -18 -95 0 -100 -1 -100 -21
-2 -98 -22 -232 -42 -278 -18 -41 -23 -72 -23 -132 l0 -80 40 -9 c22 -5 101
-7 175 -4 106 3 143 8 174 23 l38 19 -5 273 c-2 150 -7 275 -10 278 -3 3 -2
16 3 29 5 12 5 38 1 57 -5 20 -4 42 0 51 6 9 5 27 -1 42 -9 25 -8 75 5 210 2
22 6 99 10 170 13 302 15 315 40 325 18 7 24 19 30 59 l7 51 74 0 74 0 1 -52
c0 -39 3 -48 9 -33 8 19 9 19 9 -1 1 -13 9 -24 21 -27 17 -4 20 -14 21 -59 0
-29 4 -71 8 -93 l7 -40 8 53 c5 34 16 61 31 76 19 19 26 21 54 11 18 -6 37
-19 43 -29 8 -14 7 -17 -1 -12 -15 10 -14 0 3 -16 14 -14 30 -306 27 -486 -1
-46 3 -99 9 -118 11 -33 13 -34 67 -34 38 0 53 -4 51 -12 -7 -20 -111 -55
-185 -63 -70 -7 -110 -25 -98 -45 4 -7 11 -8 18 -2 7 5 39 13 72 16 33 4 75
12 93 17 18 6 41 8 50 4 22 -8 -79 -45 -125 -45 -50 0 -48 -17 3 -25 61 -9 48
-19 -34 -26 -58 -5 -51 -6 47 -7 150 -2 139 -23 -12 -24 l-105 0 -6 -92 c-4
-50 -7 -156 -9 -236 l-2 -144 72 -17 c86 -20 315 -34 358 -21 30 9 30 9 29 83
-1 63 -6 82 -32 129 -19 34 -35 82 -42 124 -14 91 -20 304 -8 335 6 17 4 28
-7 41 -13 15 -14 37 0 213 8 108 18 272 21 364 7 172 16 209 50 196 12 -4 14
30 16 208 1 118 2 226 2 241 1 16 4 28 7 28 4 0 5 10 2 22 -4 19 -3 20 6 8 9
-13 11 -13 11 3 0 9 5 17 10 17 12 0 30 41 32 76 1 13 5 24 8 24 14 0 9 69 -5
83 -12 12 -15 42 -15 141 0 69 2 126 5 126 2 0 30 -18 61 -40 73 -51 126 -70
330 -121 177 -44 161 -43 371 -21 45 5 93 16 106 25 17 11 50 15 128 15 157 0
239 25 239 73 0 19 52 32 128 31 l43 -1 -3 60 -3 60 -40 -6 c-102 -13 -640
-55 -708 -55 -23 0 -36 4 -32 10 3 6 -1 10 -9 10 -9 0 -16 5 -16 10 0 6 -4 10
-10 10 -5 0 -9 -8 -8 -17 1 -10 0 -46 0 -80 -2 -59 -4 -63 -25 -63 -13 0 -28
-5 -34 -11 -13 -13 -138 7 -170 27 -12 8 -71 21 -130 29 -165 24 -153 18 -153
75 l0 50 38 0 c47 0 56 7 71 52 14 43 71 97 104 99 85 4 189 -7 240 -27 11 -4
17 -1 17 8 0 20 -148 61 -228 64 -35 1 -68 6 -73 11 -4 4 -20 48 -34 97 -42
145 -114 319 -153 371 -48 63 -113 113 -167 127 -29 8 -41 16 -38 25 10 25
-126 173 -159 173 -10 0 -3 266 9 297 4 10 17 32 30 50 34 44 39 91 14 128
-33 48 -38 58 -51 100 -7 22 -24 54 -36 71 -29 37 -29 40 -5 47 10 2 27 17 36
31 15 22 16 31 6 52 -6 14 -11 40 -11 58 0 53 -35 71 -142 71 l-87 0 1 26 c1
38 -9 49 -48 49 -38 0 -80 -18 -130 -56 l-32 -23 -7 27 c-15 61 -64 80 -103
39z m-1 -66 c-24 -47 -46 -66 -31 -27 19 50 43 91 47 79 2 -6 -5 -30 -16 -52z
m69 -202 c-35 -16 -72 -37 -82 -46 -10 -9 -18 -11 -18 -5 0 23 105 81 145 81
11 0 -9 -13 -45 -30z m-153 -161 c-3 -7 -5 -2 -5 12 0 14 2 19 5 13 2 -7 2
-19 0 -25z m-60 -145 c-3 -10 -5 -2 -5 17 0 19 2 27 5 18 2 -10 2 -26 0 -35z
m463 28 c0 -11 -5 -23 -11 -26 -6 -4 -8 -13 -5 -21 7 -19 -3 -18 -26 3 -23 20
-23 39 0 52 27 16 42 13 42 -8z m-94 -491 c1 -18 15 -48 34 -73 18 -23 38 -48
43 -54 6 -9 6 -13 -2 -13 -22 0 -90 72 -102 107 -10 32 -9 38 7 50 10 7 18 13
18 13 1 0 1 -14 2 -30z m270 -547 c2 -91 -9 -94 -21 -6 -7 50 -1 93 13 93 4 0
8 -39 8 -87z m1032 -555 c-3 -7 -11 -13 -18 -13 -7 0 -15 6 -17 13 -3 7 4 12
17 12 13 0 20 -5 18 -12z m42 2 c0 -5 -2 -10 -4 -10 -3 0 -8 5 -11 10 -3 6 -1
10 4 10 6 0 11 -4 11 -10z m-1924 -377 c24 -71 92 -188 128 -221 l41 -37 -3
-132 -3 -133 -24 0 -25 0 0 148 c0 136 -2 150 -20 167 -20 18 -20 17 -20 -148
0 -92 -2 -167 -4 -167 -2 0 -11 3 -20 6 -14 5 -16 31 -16 188 l0 181 -35 69
c-19 37 -35 75 -35 82 0 20 30 17 36 -3z m142 -8 c8 -7 52 -176 52 -204 l0
-34 -32 25 c-41 32 -79 89 -101 153 -25 74 -24 76 31 68 26 -3 48 -7 50 -8z
m151 -67 c27 -162 26 -256 -5 -244 -12 4 -14 -12 -14 -100 l0 -105 -27 3 -28
3 -3 118 c-2 85 1 117 9 115 25 -6 28 55 9 156 -11 56 -20 104 -20 109 0 4 15
7 34 7 34 0 34 0 45 -62z m169 37 c2 -2 4 -61 5 -131 2 -121 1 -129 -18 -132
-11 -3 -27 -13 -36 -23 -9 -11 -18 -19 -20 -19 -2 0 -4 33 -4 72 0 40 -4 113
-9 162 l-9 88 44 -7 c24 -4 45 -9 47 -10z m168 -36 c3 -5 10 -7 15 -4 12 8 12
-15 -1 -51 -6 -16 -20 -34 -33 -40 -12 -5 -21 -15 -20 -21 1 -6 -4 -14 -12
-17 -13 -4 -15 9 -15 79 l0 84 30 -11 c17 -5 33 -14 36 -19z m272 -361 c3 -88
3 -88 -22 -88 -30 0 -32 9 -28 105 3 67 5 72 25 71 21 -1 22 -7 25 -88z m-104
35 c3 -21 6 -57 6 -80 0 -39 -2 -43 -25 -43 -24 0 -25 2 -25 73 0 41 3 77 7
80 16 17 31 4 37 -30z m-86 -62 c-2 -28 -7 -52 -13 -54 -11 -2 -19 87 -10 111
11 31 26 -5 23 -57z m261 -28 c1 -13 -3 -23 -9 -23 -5 0 -10 19 -9 43 0 32 2
37 9 22 5 -11 9 -30 9 -42z m-855 -1002 c3 -5 -1 -12 -10 -15 -25 -10 -34 -7
-34 9 0 16 35 21 44 6z m-14 -107 c16 -41 12 -82 -9 -93 -10 -6 -21 -7 -25 -4
-14 15 -1 123 15 123 5 0 14 -12 19 -26z m770 -286 c0 -26 -15 -22 -28 7 -18
39 -14 50 8 30 11 -10 20 -26 20 -37z m-826 0 c14 -20 14 -24 -1 -40 -20 -22
-43 -8 -43 27 0 40 21 46 44 13z"/>
<path d="M2015 4174 c-53 -27 -54 -36 -2 -29 43 7 47 6 47 -13 0 -12 -7 -25
-16 -30 -21 -12 -1 -27 23 -18 11 4 14 2 9 -9 -3 -8 -1 -15 4 -15 4 0 14 15
20 34 6 19 17 37 25 40 30 11 15 34 -29 45 -54 13 -45 14 -81 -5z"/>
<path d="M4242 3459 c2 -6 14 -16 27 -20 27 -11 19 6 -11 22 -16 8 -19 8 -16
-2z"/>
<path d="M2026 3294 c-14 -10 -16 -14 -5 -14 8 0 10 -3 4 -8 -14 -10 -18 -42
-5 -42 6 0 9 -4 5 -9 -3 -5 0 -13 6 -16 7 -5 9 4 5 26 -3 18 0 39 5 46 17 20
6 33 -15 17z"/>
<path d="M3756 3244 c-9 -8 -16 -30 -16 -49 0 -18 -2 -42 -5 -52 -10 -32 11
18 28 70 17 51 17 55 -7 31z"/>
<path d="M1561 3185 c-1 -11 -17 -32 -36 -48 -30 -24 -83 -102 -135 -202 -9
-16 -21 -39 -27 -50 -32 -55 -83 -187 -88 -226 -3 -24 -15 -89 -26 -144 -23
-107 -29 -290 -15 -422 7 -68 6 -74 -16 -95 -13 -13 -30 -32 -38 -42 -15 -19
-13 -19 54 -12 57 6 67 5 58 -7 -6 -7 -12 -49 -14 -92 -3 -75 -4 -79 -28 -85
-22 -5 -23 -7 -7 -13 31 -12 107 -8 135 7 15 8 44 22 65 31 21 9 40 22 43 30
3 7 -1 50 -9 96 -9 56 -11 95 -5 116 6 21 5 55 -2 93 -6 34 -10 90 -9 125 2
63 3 64 27 58 17 -4 23 -2 18 6 -4 6 -1 11 6 11 9 0 9 3 -2 10 -11 7 -11 10
-2 10 8 0 10 5 6 12 -4 6 -13 62 -20 122 l-13 111 5 -101 c5 -86 3 -102 -10
-107 -14 -5 -16 3 -15 51 1 60 15 196 17 175 1 -7 7 -13 12 -13 6 0 10 21 10
48 0 66 16 201 46 385 14 87 23 163 21 170 -3 7 -6 3 -6 -8z"/>
<path d="M1990 3186 c0 -2 7 -9 15 -16 9 -7 15 -8 15 -2 0 5 -7 12 -15 16 -8
3 -15 4 -15 2z"/>
<path d="M1866 3168 c-3 -7 -6 -45 -8 -85 -4 -86 -27 -124 -79 -135 -24 -5
-16 -6 25 -4 56 3 62 6 93 42 19 21 36 48 39 61 4 13 10 23 14 23 4 0 11 7 14
16 4 9 2 13 -5 8 -7 -4 -10 -1 -7 7 3 8 11 13 17 11 7 -1 10 2 6 8 -3 5 -11
10 -16 10 -6 0 -18 9 -27 19 -22 25 -61 37 -66 19z"/>
<path d="M3612 3148 c-8 -10 4 -18 46 -35 l57 -22 -40 34 c-45 39 -48 40 -63
23z"/>
<path d="M3996 3078 c-30 -47 -78 -168 -73 -182 8 -21 104 -68 130 -64 28 4
122 167 113 196 -6 19 -111 72 -141 72 -8 0 -21 -10 -29 -22z m24 -147 c0 -12
-29 -35 -36 -28 -11 10 5 37 21 37 8 0 15 -4 15 -9z"/>
<path d="M1966 2741 c-4 -7 -5 -15 -2 -18 9 -9 19 4 14 18 -4 11 -6 11 -12 0z"/>
<path d="M3410 2720 c0 -5 5 -10 11 -10 5 0 7 5 4 10 -3 6 -8 10 -11 10 -2 0
-4 -4 -4 -10z"/>
<path d="M1550 1896 l0 -210 -28 27 -27 26 0 -52 c2 -126 4 -137 23 -137 11 0
26 8 35 18 15 16 17 49 17 263 0 140 -4 250 -10 259 -6 10 -10 -55 -10 -194z"/>
<path d="M1381 1646 c-18 -21 -5 -134 24 -213 26 -74 17 -82 -21 -18 -33 57
-43 52 -15 -6 12 -23 19 -44 17 -46 -4 -4 -41 38 -68 77 l-17 25 6 -25 c4 -14
17 -42 30 -63 19 -30 27 -36 40 -28 11 5 23 5 33 -2 25 -15 69 0 82 28 9 20 6
31 -14 67 -28 47 -44 112 -43 170 0 21 -3 38 -7 38 -3 0 -13 2 -21 5 -7 3 -19
-1 -26 -9z"/>
<path d="M1278 1395 c3 -26 9 -35 23 -35 24 0 24 9 -4 43 l-23 27 4 -35z"/>
<path d="M2325 751 c-3 -5 -1 -12 5 -16 5 -3 10 -2 10 4 0 5 8 12 18 14 13 4
12 5 -5 6 -12 0 -24 -3 -28 -8z"/>
</g>
</svg>
